# xmcd CD database file
#
# Track frame offsets:
#	150
#	19651
#	37207
#	55061
#	74149
#	93055
#	110450
#	129060
#	146157
#	162876
#
# Disc length: 2412 seconds
#
# Revision: 1
# Processed by: cddbd v1.5.2PL0 Copyright (c) Steve Scherf et al.
# Submitted via: CDex 2.17
#
DISCID=86096a0a
DTITLE=Williams, Deniece - Change the World
DYEAR=1976
DGENRE=Jazz
TTITLE0=Let's Here it for the Boy
TTITLE1=Watching Over
TTITLE2=I'm So Proud
TTITLE3=One Less Lonly Heart
TTITLE4=It's Gonna Take a Miracle
TTITLE5=What Two Can Do
TTITLE6=Now is the Time For Love
TTITLE7=We Are Here to Change The World
TTITLE8=Whiter Than Snow
TTITLE9=Love Finds You
EXTD=information from RRRoyer YEAR: 1976
EXTT0=
EXTT1=
EXTT2=
EXTT3=
EXTT4=
EXTT5=
EXTT6=
EXTT7=
EXTT8=
EXTT9=
PLAYORDER=
